<svg xmlns="http://www.w3.org/2000/svg" xmlns:xlink="http://www.w3.org/1999/xlink" width="1080" zoomAndPan="magnify" viewBox="0 0 810 211.499994" height="282" preserveAspectRatio="xMidYMid meet" version="1.0"><defs><g/><clipPath id="4da96c0fd7"><path d="M 54.226562 6.105469 L 162 6.105469 L 162 204 L 54.226562 204 Z M 54.226562 6.105469 " clip-rule="nonzero"/></clipPath><clipPath id="0e835667f3"><path d="M 54.226562 6.105469 L 162.71875 6.105469 L 162.71875 204.386719 L 54.226562 204.386719 Z M 54.226562 6.105469 " clip-rule="nonzero"/></clipPath><clipPath id="406e6a0abf"><path d="M 113 164 L 157.542969 164 L 157.542969 197 L 113 197 Z M 113 164 " clip-rule="nonzero"/></clipPath><clipPath id="e302f8b0aa"><path d="M 59.527344 164 L 103 164 L 103 197 L 59.527344 197 Z M 59.527344 164 " clip-rule="nonzero"/></clipPath><clipPath id="2954ee7594"><path d="M 81 99.347656 L 136 99.347656 L 136 128 L 81 128 Z M 81 99.347656 " clip-rule="nonzero"/></clipPath></defs><g clip-path="url(#4da96c0fd7)"><path fill="#d73114" d="M 54.949219 203.609375 L 54.949219 6.769531 L 161.878906 6.769531 L 161.878906 203.609375 Z M 54.949219 203.609375 " fill-opacity="1" fill-rule="nonzero"/></g><g clip-path="url(#0e835667f3)"><path fill="#d73114" d="M 162.601562 6.769531 L 162.601562 203.609375 C 162.601562 204.011719 162.285156 204.332031 161.878906 204.332031 L 54.949219 204.332031 C 54.542969 204.332031 54.226562 204.011719 54.226562 203.609375 L 54.226562 6.769531 C 54.226562 6.363281 54.542969 6.046875 54.949219 6.046875 L 161.878906 6.046875 C 162.285156 6.046875 162.601562 6.363281 162.601562 6.769531 Z M 161.15625 202.886719 L 161.15625 7.492188 L 55.671875 7.492188 L 55.671875 202.886719 Z M 161.15625 202.886719 " fill-opacity="1" fill-rule="nonzero"/></g><g clip-path="url(#406e6a0abf)"><path fill="#ffffff" d="M 132.09375 164.835938 C 131.050781 167.003906 129.734375 168.992188 128.140625 170.796875 C 126.546875 172.601562 124.742188 174.152344 122.71875 175.457031 L 122.71875 186.554688 C 122.722656 187.179688 122.492188 187.703125 122.035156 188.125 L 113.878906 196.316406 L 157.3125 196.316406 L 157.3125 178.839844 Z M 132.09375 164.835938 " fill-opacity="1" fill-rule="nonzero"/></g><g clip-path="url(#e302f8b0aa)"><path fill="#ffffff" d="M 94.117188 186.554688 L 94.117188 175.457031 C 92.097656 174.152344 90.289062 172.601562 88.695312 170.796875 C 87.105469 168.992188 85.785156 167.003906 84.742188 164.835938 L 59.527344 178.839844 L 59.527344 196.316406 L 102.960938 196.316406 L 94.800781 188.125 C 94.34375 187.703125 94.117188 187.179688 94.117188 186.554688 Z M 94.117188 186.554688 " fill-opacity="1" fill-rule="nonzero"/></g><path fill="#ffffff" d="M 118.210938 165.488281 C 118.210938 164.847656 118.144531 164.210938 118.019531 163.578125 C 117.894531 162.949219 117.710938 162.335938 117.464844 161.742188 C 117.21875 161.148438 116.917969 160.585938 116.558594 160.050781 C 116.203125 159.515625 115.796875 159.023438 115.339844 158.566406 C 114.886719 158.113281 114.390625 157.707031 113.859375 157.347656 C 113.324219 156.992188 112.757812 156.691406 112.164062 156.445312 C 111.570312 156.199219 110.960938 156.011719 110.328125 155.886719 C 109.699219 155.761719 109.0625 155.699219 108.417969 155.699219 C 107.777344 155.699219 107.140625 155.761719 106.507812 155.886719 C 105.878906 156.011719 105.265625 156.199219 104.671875 156.445312 C 104.078125 156.691406 103.515625 156.992188 102.980469 157.347656 C 102.445312 157.707031 101.949219 158.113281 101.496094 158.566406 C 101.042969 159.023438 100.636719 159.515625 100.277344 160.050781 C 99.921875 160.585938 99.621094 161.148438 99.375 161.742188 C 99.128906 162.335938 98.941406 162.949219 98.816406 163.578125 C 98.691406 164.210938 98.628906 164.847656 98.628906 165.488281 L 98.628906 185.605469 L 108.417969 195.394531 L 118.210938 185.605469 Z M 109.933594 167.746094 L 106.90625 167.746094 C 106.605469 167.746094 106.320312 167.6875 106.042969 167.574219 C 105.765625 167.457031 105.523438 167.296875 105.3125 167.085938 C 105.101562 166.871094 104.9375 166.628906 104.824219 166.351562 C 104.707031 166.078125 104.652344 165.789062 104.652344 165.488281 C 104.652344 165.191406 104.707031 164.902344 104.824219 164.628906 C 104.9375 164.351562 105.101562 164.105469 105.3125 163.894531 C 105.523438 163.683594 105.765625 163.519531 106.042969 163.40625 C 106.320312 163.292969 106.605469 163.234375 106.90625 163.234375 L 109.933594 163.234375 C 110.230469 163.234375 110.519531 163.292969 110.792969 163.40625 C 111.070312 163.519531 111.316406 163.683594 111.527344 163.894531 C 111.738281 164.105469 111.902344 164.351562 112.015625 164.628906 C 112.128906 164.902344 112.1875 165.191406 112.1875 165.488281 C 112.1875 165.789062 112.128906 166.078125 112.015625 166.351562 C 111.902344 166.628906 111.738281 166.871094 111.527344 167.085938 C 111.316406 167.296875 111.070312 167.457031 110.792969 167.574219 C 110.519531 167.6875 110.230469 167.746094 109.933594 167.746094 Z M 109.933594 167.746094 " fill-opacity="1" fill-rule="nonzero"/><path fill="#ffffff" d="M 130.222656 153.445312 L 130.222656 131.640625 L 86.613281 131.640625 L 86.613281 153.445312 C 86.613281 155.003906 86.777344 156.546875 87.109375 158.074219 C 87.441406 159.597656 87.929688 161.074219 88.578125 162.492188 C 89.226562 163.914062 90.015625 165.25 90.949219 166.5 C 91.882812 167.75 92.941406 168.886719 94.117188 169.910156 L 94.117188 165.488281 C 94.121094 164.550781 94.210938 163.621094 94.394531 162.699219 C 94.578125 161.78125 94.851562 160.886719 95.210938 160.019531 C 95.570312 159.152344 96.007812 158.328125 96.53125 157.546875 C 97.054688 156.769531 97.644531 156.046875 98.308594 155.382812 C 98.972656 154.71875 99.695312 154.125 100.476562 153.605469 C 101.257812 153.085938 102.082031 152.644531 102.949219 152.285156 C 103.816406 151.925781 104.710938 151.65625 105.628906 151.472656 C 106.550781 151.289062 107.480469 151.195312 108.417969 151.195312 C 109.355469 151.195312 110.285156 151.289062 111.207031 151.472656 C 112.128906 151.65625 113.023438 151.925781 113.890625 152.285156 C 114.757812 152.644531 115.582031 153.085938 116.359375 153.605469 C 117.140625 154.125 117.863281 154.71875 118.527344 155.382812 C 119.191406 156.046875 119.785156 156.769531 120.304688 157.546875 C 120.828125 158.328125 121.269531 159.152344 121.628906 160.019531 C 121.988281 160.886719 122.257812 161.78125 122.441406 162.699219 C 122.625 163.621094 122.71875 164.550781 122.71875 165.488281 L 122.71875 169.910156 C 123.898438 168.886719 124.953125 167.75 125.886719 166.5 C 126.820312 165.25 127.613281 163.914062 128.257812 162.492188 C 128.90625 161.074219 129.394531 159.597656 129.726562 158.074219 C 130.058594 156.546875 130.222656 155.003906 130.222656 153.445312 Z M 102.394531 143.65625 L 96.375 143.65625 C 96.074219 143.65625 95.785156 143.597656 95.507812 143.484375 C 95.230469 143.371094 94.988281 143.207031 94.773438 142.996094 C 94.5625 142.785156 94.398438 142.542969 94.285156 142.265625 C 94.167969 141.988281 94.113281 141.699219 94.113281 141.398438 C 94.113281 141.101562 94.167969 140.8125 94.285156 140.535156 C 94.398438 140.257812 94.5625 140.015625 94.773438 139.804688 C 94.988281 139.589844 95.230469 139.429688 95.507812 139.316406 C 95.785156 139.199219 96.074219 139.144531 96.375 139.144531 L 102.394531 139.144531 C 102.695312 139.144531 102.984375 139.199219 103.261719 139.316406 C 103.539062 139.429688 103.78125 139.589844 103.996094 139.804688 C 104.207031 140.015625 104.371094 140.257812 104.484375 140.535156 C 104.601562 140.8125 104.660156 141.101562 104.660156 141.398438 C 104.660156 141.699219 104.601562 141.988281 104.484375 142.265625 C 104.371094 142.542969 104.207031 142.785156 103.996094 142.996094 C 103.78125 143.207031 103.539062 143.371094 103.261719 143.484375 C 102.984375 143.597656 102.695312 143.65625 102.394531 143.65625 Z M 120.464844 143.65625 L 114.441406 143.65625 C 114.140625 143.65625 113.851562 143.597656 113.578125 143.484375 C 113.300781 143.371094 113.054688 143.207031 112.84375 142.996094 C 112.628906 142.785156 112.464844 142.542969 112.351562 142.265625 C 112.238281 141.988281 112.179688 141.699219 112.179688 141.398438 C 112.179688 141.101562 112.238281 140.8125 112.351562 140.535156 C 112.464844 140.257812 112.628906 140.015625 112.84375 139.804688 C 113.054688 139.589844 113.300781 139.429688 113.578125 139.316406 C 113.851562 139.199219 114.140625 139.144531 114.441406 139.144531 L 120.464844 139.144531 C 120.761719 139.144531 121.050781 139.199219 121.328125 139.316406 C 121.605469 139.429688 121.851562 139.589844 122.0625 139.804688 C 122.273438 140.015625 122.4375 140.257812 122.554688 140.535156 C 122.667969 140.8125 122.726562 141.101562 122.726562 141.398438 C 122.726562 141.699219 122.667969 141.988281 122.554688 142.265625 C 122.4375 142.542969 122.273438 142.785156 122.0625 142.996094 C 121.851562 143.207031 121.605469 143.371094 121.328125 143.484375 C 121.050781 143.597656 120.761719 143.65625 120.464844 143.65625 Z M 120.464844 143.65625 " fill-opacity="1" fill-rule="nonzero"/><g clip-path="url(#2954ee7594)"><path fill="#ffffff" d="M 130.730469 127.128906 L 135.328125 108.765625 L 121.175781 113.484375 C 120.722656 113.625 120.269531 113.628906 119.816406 113.492188 C 119.363281 113.359375 118.984375 113.105469 118.683594 112.742188 L 108.417969 99.894531 L 98.152344 112.742188 C 97.851562 113.105469 97.476562 113.359375 97.019531 113.492188 C 96.566406 113.628906 96.113281 113.625 95.660156 113.484375 L 81.511719 108.765625 L 86.109375 127.128906 Z M 130.730469 127.128906 " fill-opacity="1" fill-rule="nonzero"/></g><g fill="#000000" fill-opacity="1"><g transform="translate(170.488023, 193.561543)"><g><path d="M 66.8125 -5.34375 C 67.4375 -4.257812 67.75 -3.367188 67.75 -2.671875 C 67.75 -1.816406 67.414062 -1.15625 66.75 -0.6875 C 66.09375 -0.226562 65.144531 0 63.90625 0 C 63.132812 0 62.515625 -0.148438 62.046875 -0.453125 C 61.585938 -0.765625 61.164062 -1.234375 60.78125 -1.859375 L 39.390625 -36.015625 L 18.59375 -36.015625 L 18.59375 -3.484375 C 18.59375 -2.472656 18.28125 -1.640625 17.65625 -0.984375 C 17.039062 -0.328125 16.191406 0 15.109375 0 C 14.097656 0 13.265625 -0.328125 12.609375 -0.984375 C 11.953125 -1.640625 11.625 -2.472656 11.625 -3.484375 L 11.625 -87.265625 C 11.625 -88.347656 11.953125 -89.195312 12.609375 -89.8125 C 13.265625 -90.4375 14.097656 -90.75 15.109375 -90.75 L 37.296875 -90.75 C 42.878906 -90.75 47.878906 -89.585938 52.296875 -87.265625 C 56.710938 -84.941406 60.160156 -81.6875 62.640625 -77.5 C 65.117188 -73.320312 66.359375 -68.5625 66.359375 -63.21875 C 66.359375 -56.863281 64.59375 -51.378906 61.0625 -46.765625 C 57.539062 -42.160156 52.796875 -39.003906 46.828125 -37.296875 Z M 37.296875 -43 C 41.554688 -43 45.351562 -43.847656 48.6875 -45.546875 C 52.019531 -47.253906 54.632812 -49.65625 56.53125 -52.75 C 58.425781 -55.851562 59.375 -59.34375 59.375 -63.21875 C 59.375 -67.164062 58.425781 -70.707031 56.53125 -73.84375 C 54.632812 -76.976562 52.019531 -79.414062 48.6875 -81.15625 C 45.351562 -82.90625 41.554688 -83.78125 37.296875 -83.78125 L 18.59375 -83.78125 L 18.59375 -43 Z M 37.296875 -43 "/></g></g></g><g fill="#000000" fill-opacity="1"><g transform="translate(234.745244, 193.561543)"><g><path d="M 36.84375 -64.140625 C 42.488281 -64.140625 47.539062 -62.800781 52 -60.125 C 56.457031 -57.457031 59.925781 -53.757812 62.40625 -49.03125 C 64.882812 -44.3125 66.125 -38.929688 66.125 -32.890625 C 66.125 -31.878906 65.8125 -31.082031 65.1875 -30.5 C 64.570312 -29.914062 63.757812 -29.625 62.75 -29.625 L 14.0625 -29.625 C 14.289062 -25.0625 15.488281 -20.976562 17.65625 -17.375 C 19.832031 -13.769531 22.738281 -10.957031 26.375 -8.9375 C 30.019531 -6.925781 34.085938 -5.921875 38.578125 -5.921875 C 41.597656 -5.921875 44.640625 -6.441406 47.703125 -7.484375 C 50.765625 -8.535156 53.1875 -9.914062 54.96875 -11.625 C 55.738281 -12.238281 56.550781 -12.546875 57.40625 -12.546875 C 58.257812 -12.546875 58.957031 -12.316406 59.5 -11.859375 C 60.351562 -11.160156 60.78125 -10.34375 60.78125 -9.40625 C 60.78125 -8.632812 60.429688 -7.898438 59.734375 -7.203125 C 57.253906 -4.953125 54.019531 -3.09375 50.03125 -1.625 C 46.039062 -0.15625 42.222656 0.578125 38.578125 0.578125 C 32.460938 0.578125 27.019531 -0.796875 22.25 -3.546875 C 17.488281 -6.296875 13.75 -10.128906 11.03125 -15.046875 C 8.320312 -19.960938 6.96875 -25.519531 6.96875 -31.71875 C 6.96875 -38 8.226562 -43.597656 10.75 -48.515625 C 13.269531 -53.429688 16.796875 -57.265625 21.328125 -60.015625 C 25.859375 -62.765625 31.03125 -64.140625 36.84375 -64.140625 Z M 36.84375 -57.640625 C 30.789062 -57.640625 25.691406 -55.625 21.546875 -51.59375 C 17.410156 -47.5625 14.953125 -42.253906 14.171875 -35.671875 L 59.375 -35.671875 C 58.832031 -42.253906 56.507812 -47.5625 52.40625 -51.59375 C 48.300781 -55.625 43.113281 -57.640625 36.84375 -57.640625 Z M 36.84375 -57.640625 "/></g></g></g><g fill="#000000" fill-opacity="1"><g transform="translate(299.118668, 193.561543)"><g><path d="M 16.265625 0 C 15.253906 0 14.421875 -0.328125 13.765625 -0.984375 C 13.109375 -1.640625 12.78125 -2.472656 12.78125 -3.484375 L 12.78125 -60.078125 C 12.78125 -61.160156 13.109375 -62.007812 13.765625 -62.625 C 14.421875 -63.25 15.253906 -63.5625 16.265625 -63.5625 C 17.347656 -63.5625 18.195312 -63.25 18.8125 -62.625 C 19.4375 -62.007812 19.75 -61.160156 19.75 -60.078125 L 19.75 -3.484375 C 19.75 -2.472656 19.4375 -1.640625 18.8125 -0.984375 C 18.195312 -0.328125 17.347656 0 16.265625 0 Z M 16.140625 -76.921875 C 14.597656 -76.921875 13.320312 -77.441406 12.3125 -78.484375 C 11.300781 -79.535156 10.796875 -80.835938 10.796875 -82.390625 C 10.796875 -84.085938 11.335938 -85.398438 12.421875 -86.328125 C 13.515625 -87.265625 14.796875 -87.734375 16.265625 -87.734375 C 17.734375 -87.734375 18.988281 -87.265625 20.03125 -86.328125 C 21.082031 -85.398438 21.609375 -84.085938 21.609375 -82.390625 C 21.609375 -80.835938 21.082031 -79.535156 20.03125 -78.484375 C 18.988281 -77.441406 17.691406 -76.921875 16.140625 -76.921875 Z M 16.140625 -76.921875 "/></g></g></g><g fill="#000000" fill-opacity="1"><g transform="translate(325.262983, 193.561543)"><g><path d="M 32.078125 0.703125 C 27.578125 0.703125 23.195312 -0.0859375 18.9375 -1.671875 C 14.675781 -3.265625 11.148438 -5.691406 8.359375 -8.953125 C 7.816406 -9.566406 7.546875 -10.265625 7.546875 -11.046875 C 7.546875 -12.128906 8.050781 -13.019531 9.0625 -13.71875 C 9.53125 -14.101562 10.191406 -14.296875 11.046875 -14.296875 C 12.128906 -14.296875 13.019531 -13.867188 13.71875 -13.015625 C 17.582031 -8.285156 23.816406 -5.921875 32.421875 -5.921875 C 38.535156 -5.921875 43.046875 -7.003906 45.953125 -9.171875 C 48.859375 -11.347656 50.3125 -14.140625 50.3125 -17.546875 C 50.3125 -23.671875 44.382812 -27.582031 32.53125 -29.28125 C 25.019531 -30.363281 19.347656 -32.414062 15.515625 -35.4375 C 11.679688 -38.457031 9.765625 -42.097656 9.765625 -46.359375 C 9.765625 -52.015625 11.832031 -56.410156 15.96875 -59.546875 C 20.113281 -62.691406 25.519531 -64.265625 32.1875 -64.265625 C 41.945312 -64.265625 49.347656 -60.773438 54.390625 -53.796875 C 54.847656 -53.253906 55.078125 -52.597656 55.078125 -51.828125 C 55.078125 -50.742188 54.457031 -49.851562 53.21875 -49.15625 C 52.445312 -48.84375 51.867188 -48.6875 51.484375 -48.6875 C 50.316406 -48.6875 49.347656 -49.191406 48.578125 -50.203125 C 44.617188 -55.234375 39.078125 -57.75 31.953125 -57.75 C 27.234375 -57.75 23.476562 -56.722656 20.6875 -54.671875 C 17.894531 -52.617188 16.5 -50.082031 16.5 -47.0625 C 16.5 -43.96875 17.832031 -41.488281 20.5 -39.625 C 23.175781 -37.769531 27.65625 -36.375 33.9375 -35.4375 C 42.144531 -34.28125 48.050781 -32.09375 51.65625 -28.875 C 55.257812 -25.65625 57.0625 -21.765625 57.0625 -17.203125 C 57.0625 -13.640625 55.914062 -10.5 53.625 -7.78125 C 51.34375 -5.070312 48.300781 -2.976562 44.5 -1.5 C 40.707031 -0.03125 36.566406 0.703125 32.078125 0.703125 Z M 32.078125 0.703125 "/></g></g></g><g fill="#000000" fill-opacity="1"><g transform="translate(381.153959, 193.561543)"><g><path d="M 102.140625 -90.75 C 103.148438 -90.75 103.960938 -90.421875 104.578125 -89.765625 C 105.203125 -89.109375 105.515625 -88.238281 105.515625 -87.15625 C 105.515625 -86.84375 105.4375 -86.300781 105.28125 -85.53125 L 81.34375 -3.015625 C 81.03125 -2.085938 80.546875 -1.351562 79.890625 -0.8125 C 79.234375 -0.269531 78.515625 0 77.734375 0 C 76.804688 0 76.03125 -0.269531 75.40625 -0.8125 C 74.789062 -1.351562 74.367188 -2.085938 74.140625 -3.015625 L 54.390625 -72.859375 L 34.859375 -3.015625 C 34.085938 -1.003906 32.847656 0 31.140625 0 C 30.285156 0 29.53125 -0.289062 28.875 -0.875 C 28.21875 -1.457031 27.773438 -2.171875 27.546875 -3.015625 L 3.484375 -85.53125 C 3.328125 -86.300781 3.25 -86.800781 3.25 -87.03125 C 3.25 -88.113281 3.554688 -89.003906 4.171875 -89.703125 C 4.796875 -90.398438 5.648438 -90.75 6.734375 -90.75 C 8.515625 -90.75 9.640625 -89.859375 10.109375 -88.078125 L 31.140625 -15.34375 L 51.125 -85.0625 C 51.28125 -85.675781 51.6875 -86.195312 52.34375 -86.625 C 53.007812 -87.050781 53.691406 -87.265625 54.390625 -87.265625 C 55.160156 -87.265625 55.851562 -87.050781 56.46875 -86.625 C 57.09375 -86.195312 57.519531 -85.632812 57.75 -84.9375 L 77.734375 -15.34375 L 98.765625 -88.4375 C 98.921875 -89.125 99.304688 -89.679688 99.921875 -90.109375 C 100.546875 -90.535156 101.285156 -90.75 102.140625 -90.75 Z M 102.140625 -90.75 "/></g></g></g><g fill="#000000" fill-opacity="1"><g transform="translate(483.756493, 193.561543)"><g><path d="M 36.84375 -64.140625 C 42.488281 -64.140625 47.539062 -62.800781 52 -60.125 C 56.457031 -57.457031 59.925781 -53.757812 62.40625 -49.03125 C 64.882812 -44.3125 66.125 -38.929688 66.125 -32.890625 C 66.125 -31.878906 65.8125 -31.082031 65.1875 -30.5 C 64.570312 -29.914062 63.757812 -29.625 62.75 -29.625 L 14.0625 -29.625 C 14.289062 -25.0625 15.488281 -20.976562 17.65625 -17.375 C 19.832031 -13.769531 22.738281 -10.957031 26.375 -8.9375 C 30.019531 -6.925781 34.085938 -5.921875 38.578125 -5.921875 C 41.597656 -5.921875 44.640625 -6.441406 47.703125 -7.484375 C 50.765625 -8.535156 53.1875 -9.914062 54.96875 -11.625 C 55.738281 -12.238281 56.550781 -12.546875 57.40625 -12.546875 C 58.257812 -12.546875 58.957031 -12.316406 59.5 -11.859375 C 60.351562 -11.160156 60.78125 -10.34375 60.78125 -9.40625 C 60.78125 -8.632812 60.429688 -7.898438 59.734375 -7.203125 C 57.253906 -4.953125 54.019531 -3.09375 50.03125 -1.625 C 46.039062 -0.15625 42.222656 0.578125 38.578125 0.578125 C 32.460938 0.578125 27.019531 -0.796875 22.25 -3.546875 C 17.488281 -6.296875 13.75 -10.128906 11.03125 -15.046875 C 8.320312 -19.960938 6.96875 -25.519531 6.96875 -31.71875 C 6.96875 -38 8.226562 -43.597656 10.75 -48.515625 C 13.269531 -53.429688 16.796875 -57.265625 21.328125 -60.015625 C 25.859375 -62.765625 31.03125 -64.140625 36.84375 -64.140625 Z M 36.84375 -57.640625 C 30.789062 -57.640625 25.691406 -55.625 21.546875 -51.59375 C 17.410156 -47.5625 14.953125 -42.253906 14.171875 -35.671875 L 59.375 -35.671875 C 58.832031 -42.253906 56.507812 -47.5625 52.40625 -51.59375 C 48.300781 -55.625 43.113281 -57.640625 36.84375 -57.640625 Z M 36.84375 -57.640625 "/></g></g></g><g fill="#000000" fill-opacity="1"><g transform="translate(548.129917, 193.561543)"><g><path d="M 42.875 -64.265625 C 49 -64.265625 54.539062 -62.847656 59.5 -60.015625 C 64.457031 -57.191406 68.347656 -53.300781 71.171875 -48.34375 C 74.003906 -43.382812 75.421875 -37.882812 75.421875 -31.84375 C 75.421875 -25.71875 74.003906 -20.175781 71.171875 -15.21875 C 68.347656 -10.257812 64.457031 -6.363281 59.5 -3.53125 C 54.539062 -0.707031 49 0.703125 42.875 0.703125 C 36.914062 0.703125 31.472656 -0.671875 26.546875 -3.421875 C 21.628906 -6.171875 17.738281 -9.984375 14.875 -14.859375 C 12.007812 -19.742188 10.535156 -25.171875 10.453125 -31.140625 L 10.453125 -87.265625 C 10.453125 -88.347656 10.78125 -89.195312 11.4375 -89.8125 C 12.101562 -90.4375 12.9375 -90.75 13.9375 -90.75 C 15.03125 -90.75 15.882812 -90.4375 16.5 -89.8125 C 17.125 -89.195312 17.4375 -88.347656 17.4375 -87.265625 L 17.4375 -51.015625 C 19.988281 -55.117188 23.488281 -58.351562 27.9375 -60.71875 C 32.394531 -63.082031 37.375 -64.265625 42.875 -64.265625 Z M 42.875 -5.8125 C 47.675781 -5.8125 52.015625 -6.953125 55.890625 -9.234375 C 59.765625 -11.523438 62.820312 -14.644531 65.0625 -18.59375 C 67.3125 -22.539062 68.4375 -26.957031 68.4375 -31.84375 C 68.4375 -36.71875 67.3125 -41.128906 65.0625 -45.078125 C 62.820312 -49.035156 59.765625 -52.132812 55.890625 -54.375 C 52.015625 -56.625 47.675781 -57.75 42.875 -57.75 C 38.070312 -57.75 33.734375 -56.625 29.859375 -54.375 C 25.984375 -52.132812 22.941406 -49.035156 20.734375 -45.078125 C 18.535156 -41.128906 17.4375 -36.71875 17.4375 -31.84375 C 17.4375 -26.957031 18.535156 -22.539062 20.734375 -18.59375 C 22.941406 -14.644531 25.984375 -11.523438 29.859375 -9.234375 C 33.734375 -6.953125 38.070312 -5.8125 42.875 -5.8125 Z M 42.875 -5.8125 "/></g></g></g></svg>